# xmcd
#
# Track frame offsets: 
#        150
#        23272
#        48927
#        74732
#        101587
#        124505
#        144112
#        169970
#        201120
#        226810
#        248092
#        261585
#        286505
#
# Disc length: 4046 seconds
#
# Revision: 0
# Processed by: cddbd v1.5.2PL0 Copyright (c) Steve Scherf et al.
# Submitted via: ExactAudioCopy v1.0b1
#
DISCID=ac0fcc0d
DTITLE=Various Artist - Mong Duoi Hoa
DYEAR=1900
DGENRE=Blues
TTITLE0=Anh Tuyet - Mua Thu Khong Tro Lai
TTITLE1=Thu Phuong - Mong Duoi Hoa
TTITLE2=Canh Han - Lanh Lung
TTITLE3=Thanh Lam - Em Den Tham Anh Mot Chieu Mua
TTITLE4=Thu Minh - Ngan Thu Ao Tim
TTITLE5=Hong Nhung - Chieu Tim
TTITLE6=Cao Minh - Co Hang Cafe
TTITLE7=Le Dung - Tieng Chuong Chieu Thu
TTITLE8=Thanh Lam and Hong Nhung - Yeu
TTITLE9=Thu Ha - Noi Long
TTITLE10=Ngoc Bao - Ghen
TTITLE11=Thu Phuong - Nhac Sau Tuong Tu
TTITLE12=Tam Ca Ao Trang - Doan Lu Nhac
EXTD=
EXTT0=
EXTT1=
EXTT2=
EXTT3=
EXTT4=
EXTT5=
EXTT6=
EXTT7=
EXTT8=
EXTT9=
EXTT10=
EXTT11=
EXTT12=
PLAYORDER=
